<svg xmlns="http://www.w3.org/2000/svg" viewBox="0 0 543.906 543.906" width="512" height="512"><path d="M82.163 0C36.806 0 0 36.806 0 82.163v379.576c0 45.362 36.806 82.168 82.163 82.168H461.81c45.367 0 82.097-36.806 82.097-82.163V82.163C543.906 36.806 507.171 0 461.809 0H82.163zm66.4 67.7c27.951 0 45.182 18.4 45.71 42.528 0 23.606-17.802 42.457-46.292 42.457h-.506c-27.44 0-45.204-18.852-45.204-42.457 0-24.128 18.313-42.528 46.292-42.528zm240.999 112.828c53.792 0 94.096 35.115 94.096 110.663v141.046h-81.733V300.666c0-33.059-11.857-55.62-41.446-55.62-22.578 0-35.979 15.175-41.875 29.871-2.159 5.254-2.747 12.608-2.747 19.961v137.358h-81.733s1.082-222.844 0-245.916h81.733v34.864c10.851-16.768 30.28-40.656 73.705-40.656zm-282.445 5.787h81.727v245.916h-81.727V186.315z" fill="#FFF"/></svg>