<?xml version="1.0" standalone="no"?>
<!DOCTYPE svg PUBLIC "-//W3C//DTD SVG 20010904//EN"
 "http://www.w3.org/TR/2001/REC-SVG-20010904/DTD/svg10.dtd">
<svg version="1.0" xmlns="http://www.w3.org/2000/svg"
 width="717.000000pt" height="717.000000pt" viewBox="0 0 717.000000 717.000000"
 preserveAspectRatio="xMidYMid meet">
<metadata>
Created by potrace 1.11, written by Peter Selinger 2001-2013
</metadata>
<g transform="translate(0.000000,717.000000) scale(0.100000,-0.100000)"
fill="#000000" stroke="none">
<path d="M4380 7064 c-289 -47 -558 -168 -770 -344 -71 -60 -192 -181 -186
-187 2 -3 35 4 73 15 227 65 510 73 748 21 459 -101 855 -406 1062 -818 72
-143 91 -192 123 -311 57 -214 70 -452 34 -670 -21 -133 -89 -335 -152 -455
-32 -60 -134 -217 -173 -264 -16 -19 -27 -37 -25 -39 7 -6 159 58 243 104 136
73 252 161 373 283 339 342 493 783 446 1276 -4 44 -9 82 -11 85 -2 3 -6 23
-9 45 -10 60 -34 148 -63 228 -118 330 -345 613 -649 809 -147 95 -405 193
-564 215 -19 3 -55 9 -79 13 -72 13 -329 10 -421 -6z"/>
<path d="M2108 6885 c-2 -1 -41 -5 -88 -9 -127 -9 -165 -15 -278 -42 -430
-105 -797 -390 -1010 -784 -65 -121 -143 -336 -157 -435 -2 -16 -6 -40 -9 -52
-31 -146 -23 -446 16 -598 5 -22 11 -47 13 -56 16 -81 140 -378 153 -365 2 3
6 18 7 33 2 15 6 56 9 90 11 111 18 146 47 250 160 571 614 988 1212 1114 117
25 385 34 502 18 458 -64 850 -311 1114 -701 29 -43 54 -78 55 -78 4 0 -1 138
-8 219 -25 281 -156 591 -348 823 -269 322 -676 535 -1079 564 -46 3 -99 7
-116 8 -18 2 -34 2 -35 1z"/>
<path d="M3046 5009 c-262 -95 -430 -224 -534 -407 -37 -66 -71 -188 -76 -276
-5 -77 10 -132 60 -231 43 -84 175 -299 186 -303 4 -2 8 -8 8 -12 0 -5 40 -69
89 -143 103 -155 112 -182 95 -306 -6 -46 -8 -98 -4 -115 8 -35 64 -166 90
-211 166 -286 195 -325 253 -344 43 -14 196 -20 262 -9 47 7 155 54 179 78 11
11 12 232 1 249 -4 7 -14 11 -23 10 -52 -5 -61 3 -143 114 -46 61 -89 118 -96
125 -18 18 -18 18 27 130 51 127 80 240 80 312 0 92 -70 340 -96 340 -22 0
-175 51 -234 77 -122 56 -222 166 -267 293 -23 65 -16 76 46 72 194 -10 333
-91 471 -273 66 -88 71 -103 101 -274 24 -143 31 -254 17 -321 -5 -27 -11 -60
-14 -73 -3 -13 -18 -62 -34 -109 -17 -47 -30 -89 -30 -93 0 -9 424 -11 452 -3
13 4 16 10 9 22 -20 38 -62 182 -75 255 -19 109 -12 198 29 396 20 93 31 124
64 175 56 84 146 178 206 213 75 44 231 90 293 86 6 0 21 -1 32 -2 29 -2 26
-33 -11 -105 -64 -125 -139 -205 -242 -258 -60 -30 -154 -62 -217 -73 -32 -6
-38 -12 -63 -73 -71 -176 -71 -274 2 -502 11 -36 32 -94 45 -128 l25 -64 -91
-116 c-121 -154 -111 -146 -158 -144 -22 1 -40 -1 -41 -6 -1 -11 -1 -215 0
-233 1 -9 33 -32 78 -55 76 -38 79 -39 198 -41 199 -4 224 11 332 192 130 217
193 359 187 418 -2 18 -6 73 -10 123 l-7 92 110 168 c61 93 130 201 154 240
24 38 50 79 56 90 24 36 77 139 102 194 42 95 28 255 -36 400 -46 104 -163
238 -268 305 -65 41 -215 117 -215 108 0 -3 -6 -1 -12 5 -29 23 -141 51 -186
47 -63 -6 -160 -35 -257 -76 -44 -18 -82 -34 -85 -34 -3 -1 -22 -9 -42 -18
-29 -12 -62 -15 -140 -13 -95 3 -110 7 -194 44 -117 52 -243 92 -308 96 -38 3
-71 -3 -130 -25z"/>
<path d="M6232 4663 c26 -31 104 -166 141 -247 51 -108 94 -231 112 -323 8
-43 17 -91 21 -108 13 -63 12 -342 -2 -437 -47 -342 -208 -661 -456 -905 -45
-46 -94 -90 -108 -100 -14 -9 -32 -24 -40 -32 -45 -44 -243 -157 -350 -200
-71 -28 -221 -75 -279 -86 -140 -29 -423 -39 -531 -21 -19 4 -61 11 -94 17
-75 13 -207 52 -268 78 -27 11 -48 18 -48 16 0 -3 25 -35 56 -72 84 -101 206
-214 308 -288 97 -69 289 -169 396 -205 464 -156 965 -96 1367 166 250 162
433 371 563 639 59 121 92 223 125 375 22 105 24 134 21 330 -2 180 -6 231
-25 315 -105 462 -394 840 -805 1055 -102 53 -129 62 -104 33z"/>
<path d="M1365 4415 c-600 -81 -1102 -493 -1284 -1053 -56 -174 -74 -289 -75
-477 -1 -184 3 -238 29 -358 96 -455 410 -865 822 -1070 116 -58 272 -115 363
-132 30 -6 66 -13 100 -20 87 -18 309 -24 415 -12 128 15 156 20 148 28 -4 4
-39 19 -78 34 -122 45 -236 114 -387 232 -97 76 -285 294 -339 393 -8 14 -17
27 -20 30 -3 3 -29 52 -56 110 -126 263 -179 559 -151 840 44 434 269 833 621
1100 170 129 340 210 577 271 l45 11 -45 14 c-59 19 -202 50 -265 59 -86 13
-326 12 -420 0z"/>
<path d="M4268 4325 c-1 -1 -22 -5 -45 -9 -24 -3 -56 -12 -72 -20 -32 -17
-131 -123 -131 -141 0 -7 11 -24 24 -39 20 -24 28 -27 62 -22 21 4 64 19 94
34 48 24 59 35 88 91 18 35 32 71 30 79 -3 14 -41 35 -50 27z"/>
<path d="M3077 4308 c-6 -19 19 -84 50 -128 31 -44 93 -76 164 -84 42 -6 45
-4 65 28 l22 34 -47 53 c-53 63 -74 80 -116 96 -41 16 -132 16 -138 1z"/>
<path d="M3627 2635 c-21 -7 -37 -11 -37 -10 0 2 -15 -1 -32 -6 -70 -20 -97
-23 -203 -23 -78 0 -121 5 -147 16 -20 9 -39 14 -42 11 -7 -8 3 -79 21 -143
38 -141 139 -262 269 -326 76 -38 78 -39 208 -41 147 -2 209 10 292 58 126 72
232 229 250 375 10 75 10 79 -6 76 -163 -38 -227 -37 -395 2 -99 23 -136 25
-178 11z"/>
<path d="M2323 2507 c-43 -69 -109 -199 -143 -282 -21 -51 -64 -200 -74 -260
-3 -16 -8 -41 -11 -54 -18 -91 -24 -327 -11 -436 12 -103 47 -260 73 -325 3
-8 7 -19 9 -25 16 -62 100 -229 163 -325 211 -322 562 -574 926 -665 160 -40
207 -44 425 -41 113 2 217 6 233 10 15 3 37 8 50 10 155 28 387 122 542 221
372 239 641 656 701 1090 3 17 7 41 10 55 4 18 -30 -11 -118 -102 -176 -181
-261 -245 -447 -338 -227 -113 -438 -163 -691 -164 -130 0 -221 8 -325 29
-623 127 -1106 613 -1231 1240 -23 115 -34 367 -19 415 3 10 2 21 -2 23 -5 3
-32 -31 -60 -76z"/>
</g>
</svg>
