<?xml version="1.0" encoding="utf-8"?>
<!-- Generator: Adobe Illustrator 16.0.0, SVG Export Plug-In . SVG Version: 6.00 Build 0)  -->
<!DOCTYPE svg PUBLIC "-//W3C//DTD SVG 1.1//EN" "http://www.w3.org/Graphics/SVG/1.1/DTD/svg11.dtd">
<svg version="1.1" id="Capa_1" xmlns="http://www.w3.org/2000/svg" xmlns:xlink="http://www.w3.org/1999/xlink" x="0px" y="0px"
	 width="130.936px" height="110.106px" viewBox="62.206 23.792 130.936 110.106"
	 enable-background="new 62.206 23.792 130.936 110.106" xml:space="preserve">
<g>
	<g>
		<path fill="#0A9EFC" d="M100.564,31.219c-4.758,5.328-5.409,12.875-2.05,18.78c0.082-1.724,0.326-3.439,0.984-5.165
			c3.034-8.36,12.379-12.632,20.749-9.598c3.773,1.391,6.645,4.018,8.532,7.214c0.162-4.596-1.644-9.183-5.327-12.461
			C116.799,24.004,106.551,24.574,100.564,31.219L100.564,31.219z"/>
		<path fill="#0A9EFC" d="M105.729,80.582c-7.052-5.49-8.36-15.665-2.872-22.717c2.457-3.196,5.824-5.165,9.428-5.905
			c-4.344-1.472-9.265-1.146-13.526,1.311c-7.71,4.506-10.249,14.429-5.742,22.14c3.611,6.149,10.663,9.021,17.3,7.63
			C108.682,82.551,107.128,81.729,105.729,80.582L105.729,80.582z"/>
		<path fill="#0A9EFC" d="M140.664,84.763c-7.377,5.084-17.463,3.277-22.547-4.019c-2.293-3.278-3.196-7.133-2.79-10.826
			c-2.708,3.693-3.855,8.443-2.79,13.282c2.05,8.695,10.745,14.104,19.431,12.136c6.971-1.644,11.811-7.459,12.461-14.186
			C143.373,82.469,142.144,83.697,140.664,84.763L140.664,84.763z"/>
		<path fill="#0A9EFC" d="M154.767,48.438c0.984,1.391,1.806,2.953,2.375,4.677c2.627,8.524-2.131,17.634-10.663,20.253
			c-3.854,1.147-7.711,0.903-11.15-0.578c2.709,3.693,6.889,6.23,11.811,6.646c8.938,0.739,16.73-5.986,17.381-14.845
			C165.097,57.458,160.998,51.065,154.767,48.438L154.767,48.438z"/>
		<path fill="#0A9EFC" d="M144.275,24.989c-6.646-2.708-13.94-0.659-18.365,4.506c1.643-0.577,3.358-0.821,5.165-0.821
			c8.938,0,16.152,7.297,16.152,16.235c0,4.018-1.472,7.629-3.937,10.492c4.344-1.472,8.036-4.677,9.923-9.264
			C156.573,37.783,152.554,28.348,144.275,24.989L144.275,24.989z"/>
		<path fill="#0A9EFC" d="M129.024,69.415L129.024,69.415h-0.577c-0.041,0.018-1.984,0.626-3.204,0.586
			c-1.213-0.041-1.896-0.415-1.896-0.415s-0.098,2.464,1.896,4.165c1.69,1.448,3.204,1.106,3.204,1.106v-0.008h0.595l0,0
			c0.171,0.031,1.602,0.252,3.188-1.106c1.993-1.708,1.896-4.172,1.896-4.172l0,0c-0.131,0.064-0.814,0.358-1.896,0.397
			C131.123,70.017,129.341,69.504,129.024,69.415z"/>
		<path fill="#0A9EFC" d="M141.534,53.286c0.31-0.984-0.032-2.416-0.415-3.375c-0.374-0.968-0.902-1.716-2.066-2.822
			c-0.691-0.658-2.725-1.757-4.44-2.236c-0.568-0.163-1.724,0.204-2.343,0.415c-0.617,0.203-2.513,1.032-2.513,1.032l-0.431,0.009
			l0,0l-0.871,0.008v-0.008h-0.725c0,0-1.895-0.83-2.513-1.033s-1.773-0.577-2.343-0.415c-1.725,0.479-3.758,1.586-4.441,2.237
			c-1.163,1.105-1.691,1.861-2.065,2.821c-0.383,0.969-0.725,2.392-0.415,3.375c0.658,2.066,4.132,6.751,4.408,7.442
			c0.277,0.69-0.162,1.993-0.064,2.651c0.203,1.357,2.479,4.888,2.479,4.888l0.017,0.033c0.122,0.202,0.553,0.854,1.164,0.968
			c0.724,0.138,2.154,0.171,2.813,0.023c0.496-0.104,1.465-0.675,1.668-0.797l0.008-2.586l-0.895-0.008l-2.066-2.749
			c0,0,1.147-2.383,1.285-3.896c0.139-1.514-0.87-3.864-0.87-3.864s-2.131-0.382-3.473-1.351c-1.342-0.968-1.968-2.684-1.936-3.091
			c0.032-0.415,2.676-0.049,3.952,1c1.204,1,2.181,2.578,2.181,2.578s0.513,2.034,0.659,3.823c0.138,1.789-0.952,4.262-0.952,4.262
			l0.927,0.041h1.391l2.546-0.041c0,0-1.105-2.473-0.968-4.27c0.14-1.79,0.65-3.823,0.65-3.823s0.854-1.537,2.065-2.53
			c1.27-1.057,4.034-1.464,4.066-1.049c0.033,0.415-0.789,2.261-2.131,3.221c-1.342,0.969-3.271,1.221-3.271,1.221
			s-1,1.902-0.871,3.416c0.14,1.513,1.303,4.399,1.303,4.399l-2.092,2.692h-0.909v2.546c0.211,0.13,1.194,0.716,1.69,0.822
			c0.659,0.146,2.091,0.113,2.814-0.024c0.553-0.105,0.992-0.691,1.172-0.952l0.016-0.033c0,0,2.277-3.537,2.48-4.888
			c0.098-0.659-0.342-1.968-0.064-2.652C137.402,60.037,140.882,55.352,141.534,53.286z"/>
		<path fill="#0A9EFC" d="M135.166,52.302c0.146,0.391-0.61,1.554-0.798,1.667c-0.951,0.595-1.789,0.554-1.789,0.554l-0.465-0.651
			c0,0,0.937-1.236,1.407-1.448C133.986,52.212,135.068,52.033,135.166,52.302z"/>
		<path fill="#0A9EFC" d="M122.46,52.302c-0.146,0.391,0.609,1.554,0.797,1.667c0.952,0.595,1.79,0.554,1.79,0.554l0.463-0.651
			c0,0-0.935-1.236-1.407-1.448C123.64,52.212,122.558,52.033,122.46,52.302z"/>
	</g>
	<g>
		<g>
			<path fill="#0A9EFC" d="M77.408,124.545h3.213c0.586,0,1.064,0.081,1.439,0.235c0.374,0.163,0.675,0.358,0.896,0.603
				c0.22,0.245,0.374,0.521,0.456,0.821c0.089,0.311,0.13,0.603,0.13,0.886c0,0.293-0.049,0.578-0.154,0.848
				c-0.106,0.269-0.252,0.513-0.447,0.73c-0.194,0.222-0.431,0.407-0.708,0.555c-0.275,0.146-0.594,0.242-0.935,0.275l2.586,4.164
				h-1.545l-2.318-4.018h-1.383v4.018H77.4v-9.117H77.408L77.408,124.545z M78.644,128.563h1.627c0.244,0,0.48-0.017,0.716-0.058
				c0.236-0.041,0.447-0.104,0.635-0.211c0.187-0.105,0.333-0.253,0.446-0.447c0.114-0.194,0.171-0.447,0.171-0.758
				c0-0.309-0.057-0.561-0.171-0.756c-0.113-0.194-0.26-0.342-0.446-0.446c-0.188-0.105-0.398-0.172-0.635-0.212
				c-0.235-0.041-0.472-0.058-0.716-0.058h-1.627V128.563z"/>
			<path fill="#0A9EFC" d="M85.859,131.035c0,0.27,0.058,0.513,0.171,0.732c0.114,0.219,0.269,0.405,0.455,0.561
				c0.188,0.154,0.407,0.277,0.659,0.358c0.252,0.089,0.504,0.13,0.772,0.13c0.357,0,0.675-0.081,0.943-0.252
				s0.513-0.392,0.732-0.667l0.878,0.667c-0.643,0.83-1.545,1.252-2.708,1.252c-0.479,0-0.919-0.08-1.31-0.243
				c-0.392-0.163-0.725-0.391-0.992-0.675c-0.27-0.285-0.48-0.627-0.626-1.019c-0.146-0.391-0.221-0.813-0.221-1.269
				s0.082-0.878,0.236-1.27c0.163-0.391,0.375-0.731,0.659-1.018c0.276-0.284,0.61-0.512,1-0.674
				c0.391-0.163,0.806-0.244,1.261-0.244c0.545,0,1,0.098,1.375,0.284c0.374,0.187,0.684,0.438,0.919,0.74
				c0.244,0.31,0.415,0.649,0.521,1.031c0.105,0.384,0.163,0.773,0.163,1.164v0.414H85.86L85.859,131.035L85.859,131.035z
				 M89.519,130.107c-0.008-0.26-0.049-0.496-0.122-0.707c-0.072-0.211-0.179-0.398-0.325-0.562
				c-0.146-0.163-0.325-0.284-0.545-0.375c-0.22-0.09-0.472-0.139-0.765-0.139c-0.285,0-0.545,0.058-0.781,0.163
				c-0.235,0.105-0.438,0.244-0.602,0.415s-0.293,0.366-0.382,0.578c-0.089,0.211-0.139,0.414-0.139,0.625L89.519,130.107
				L89.519,130.107z"/>
			<path fill="#0A9EFC" d="M98.271,133.67h-1.163v-0.878h-0.023c-0.221,0.325-0.529,0.577-0.919,0.757
				c-0.391,0.18-0.789,0.269-1.204,0.269c-0.473,0-0.903-0.08-1.285-0.243s-0.708-0.391-0.976-0.684
				c-0.27-0.292-0.48-0.635-0.626-1.018c-0.146-0.391-0.22-0.805-0.22-1.261s0.073-0.878,0.22-1.27
				c0.146-0.391,0.357-0.731,0.626-1.018c0.269-0.284,0.594-0.512,0.976-0.674c0.382-0.163,0.813-0.244,1.285-0.244
				c0.438,0,0.854,0.089,1.235,0.275c0.391,0.188,0.684,0.438,0.887,0.757h0.023v-4.516h1.164V133.67L98.271,133.67z
				 M95.099,132.743c0.31,0,0.585-0.057,0.838-0.163c0.252-0.104,0.463-0.252,0.634-0.438c0.172-0.187,0.302-0.407,0.398-0.667
				c0.097-0.261,0.139-0.545,0.139-0.854s-0.049-0.594-0.139-0.854c-0.098-0.262-0.228-0.488-0.398-0.667
				c-0.171-0.188-0.382-0.334-0.634-0.439c-0.252-0.104-0.528-0.162-0.838-0.162c-0.309,0-0.585,0.058-0.838,0.162
				c-0.252,0.105-0.463,0.252-0.634,0.439c-0.171,0.187-0.31,0.405-0.398,0.667c-0.098,0.261-0.138,0.545-0.138,0.854
				c0,0.31,0.048,0.594,0.138,0.854c0.099,0.26,0.229,0.487,0.398,0.667c0.171,0.187,0.382,0.333,0.634,0.438
				C94.513,132.687,94.79,132.743,95.099,132.743z"/>
			<path fill="#0A9EFC" d="M109.731,133.67h-1.163v-0.878h-0.023c-0.22,0.325-0.529,0.577-0.919,0.757
				c-0.392,0.18-0.789,0.269-1.204,0.269c-0.472,0-0.903-0.08-1.285-0.243s-0.708-0.391-0.976-0.684
				c-0.27-0.292-0.48-0.635-0.626-1.018c-0.146-0.391-0.221-0.805-0.221-1.261s0.073-0.878,0.221-1.27
				c0.146-0.391,0.357-0.731,0.626-1.018c0.268-0.284,0.594-0.512,0.976-0.674c0.382-0.163,0.813-0.244,1.285-0.244
				c0.438,0,0.854,0.089,1.236,0.275c0.391,0.188,0.684,0.438,0.887,0.757h0.023v-4.516h1.163V133.67z M106.559,132.743
				c0.31,0,0.585-0.057,0.838-0.163c0.252-0.104,0.463-0.252,0.634-0.438c0.172-0.187,0.302-0.407,0.398-0.667
				c0.097-0.261,0.138-0.545,0.138-0.854s-0.049-0.594-0.138-0.854c-0.098-0.262-0.228-0.488-0.398-0.667
				c-0.171-0.188-0.382-0.334-0.634-0.439c-0.252-0.104-0.528-0.162-0.838-0.162c-0.309,0-0.586,0.058-0.838,0.162
				c-0.252,0.105-0.464,0.252-0.634,0.439c-0.171,0.188-0.31,0.405-0.399,0.667c-0.097,0.261-0.138,0.545-0.138,0.854
				c0,0.31,0.049,0.594,0.138,0.854c0.099,0.26,0.229,0.487,0.399,0.667c0.17,0.187,0.382,0.333,0.634,0.438
				C105.965,132.687,106.25,132.743,106.559,132.743z"/>
			<path fill="#0A9EFC" d="M112.358,131.035c0,0.27,0.058,0.513,0.171,0.732c0.114,0.219,0.269,0.405,0.455,0.561
				c0.188,0.155,0.407,0.277,0.659,0.358c0.252,0.089,0.504,0.13,0.772,0.13c0.357,0,0.675-0.081,0.942-0.252
				c0.27-0.171,0.514-0.392,0.732-0.667l0.878,0.667c-0.643,0.83-1.545,1.252-2.708,1.252c-0.48,0-0.919-0.08-1.31-0.243
				c-0.392-0.163-0.725-0.391-0.993-0.675c-0.269-0.285-0.479-0.627-0.626-1.019c-0.147-0.391-0.221-0.813-0.221-1.269
				s0.082-0.878,0.236-1.27c0.163-0.391,0.374-0.731,0.659-1.018c0.277-0.284,0.61-0.512,1-0.674
				c0.391-0.163,0.805-0.244,1.261-0.244c0.545,0,1,0.098,1.375,0.284s0.685,0.438,0.919,0.74c0.244,0.31,0.415,0.649,0.521,1.031
				c0.104,0.384,0.163,0.773,0.163,1.164v0.414h-4.889L112.358,131.035L112.358,131.035z M116.019,130.107
				c-0.008-0.26-0.049-0.496-0.122-0.707c-0.072-0.211-0.179-0.398-0.326-0.562c-0.146-0.163-0.324-0.284-0.545-0.375
				c-0.219-0.09-0.472-0.139-0.764-0.139c-0.285,0-0.545,0.058-0.781,0.163c-0.235,0.105-0.438,0.244-0.602,0.415
				s-0.293,0.366-0.382,0.578c-0.089,0.211-0.139,0.414-0.139,0.625L116.019,130.107L116.019,130.107z"/>
			<path fill="#0A9EFC" d="M128.878,126.514c-0.261-0.334-0.586-0.595-0.978-0.773c-0.398-0.179-0.806-0.269-1.229-0.269
				c-0.512,0-0.984,0.098-1.399,0.293c-0.415,0.194-0.771,0.456-1.073,0.789c-0.292,0.333-0.528,0.73-0.691,1.179
				c-0.163,0.447-0.244,0.936-0.244,1.448c0,0.479,0.081,0.936,0.236,1.365c0.153,0.433,0.374,0.807,0.667,1.132
				c0.292,0.325,0.649,0.586,1.074,0.772c0.423,0.188,0.895,0.284,1.431,0.284c0.521,0,0.983-0.106,1.383-0.325
				c0.398-0.212,0.732-0.513,1.009-0.903l1.041,0.789c-0.064,0.099-0.187,0.229-0.357,0.407c-0.17,0.179-0.398,0.351-0.684,0.528
				s-0.626,0.333-1.024,0.464c-0.398,0.13-0.862,0.203-1.384,0.203c-0.724,0-1.375-0.14-1.951-0.415
				c-0.577-0.276-1.074-0.634-1.48-1.081s-0.715-0.952-0.935-1.514c-0.211-0.562-0.325-1.132-0.325-1.708
				c0-0.708,0.114-1.358,0.35-1.952c0.236-0.595,0.554-1.114,0.977-1.545c0.415-0.433,0.919-0.773,1.504-1.01
				c0.586-0.243,1.229-0.357,1.936-0.357c0.603,0,1.196,0.114,1.773,0.35c0.578,0.236,1.058,0.586,1.424,1.074L128.878,126.514z"/>
			<path fill="#0A9EFC" d="M131,130.612c0-0.447,0.081-0.862,0.253-1.253c0.17-0.392,0.397-0.725,0.689-1.017
				c0.293-0.293,0.636-0.521,1.033-0.69c0.398-0.172,0.821-0.253,1.276-0.253c0.456,0,0.879,0.081,1.276,0.253
				c0.398,0.17,0.74,0.397,1.033,0.69c0.293,0.292,0.521,0.635,0.691,1.017c0.171,0.391,0.252,0.806,0.252,1.253
				s-0.081,0.862-0.252,1.253s-0.398,0.732-0.691,1.017c-0.293,0.285-0.635,0.514-1.033,0.684c-0.397,0.172-0.82,0.252-1.276,0.252
				c-0.455,0-0.878-0.08-1.276-0.252c-0.397-0.17-0.74-0.398-1.033-0.684c-0.292-0.283-0.521-0.626-0.689-1.017
				C131.089,131.482,131,131.06,131,130.612z M132.246,130.612c0,0.31,0.049,0.594,0.138,0.854c0.098,0.261,0.228,0.488,0.398,0.666
				c0.171,0.188,0.382,0.334,0.635,0.439c0.252,0.104,0.527,0.163,0.837,0.163s0.586-0.059,0.838-0.163
				c0.252-0.105,0.465-0.252,0.635-0.439c0.171-0.187,0.301-0.405,0.398-0.666s0.139-0.545,0.139-0.854s-0.049-0.594-0.139-0.854
				c-0.099-0.26-0.229-0.486-0.398-0.666c-0.17-0.188-0.383-0.334-0.635-0.438c-0.252-0.105-0.528-0.163-0.838-0.163
				s-0.585,0.058-0.837,0.163c-0.253,0.104-0.464,0.252-0.635,0.438c-0.172,0.188-0.311,0.406-0.398,0.666
				C132.286,130.019,132.246,130.303,132.246,130.612z"/>
			<path fill="#0A9EFC" d="M138.955,127.563h1.164v0.942h0.023c0.146-0.325,0.398-0.594,0.757-0.789
				c0.357-0.202,0.78-0.301,1.252-0.301c0.293,0,0.578,0.049,0.847,0.14c0.269,0.089,0.504,0.227,0.708,0.413
				c0.203,0.188,0.365,0.433,0.479,0.732c0.122,0.293,0.18,0.643,0.18,1.049v3.93h-1.163v-3.611c0-0.284-0.04-0.528-0.113-0.731
				c-0.082-0.204-0.18-0.366-0.31-0.487c-0.131-0.122-0.276-0.212-0.447-0.27s-0.342-0.081-0.521-0.081
				c-0.244,0-0.463,0.04-0.667,0.113c-0.203,0.082-0.39,0.203-0.545,0.366c-0.154,0.171-0.276,0.382-0.358,0.634
				c-0.089,0.261-0.129,0.563-0.129,0.912v3.146h-1.164v-6.106H138.955z"/>
			<path fill="#0A9EFC" d="M146.568,128.563h-1.315v-1.008h1.315v-1.367c0-0.813,0.155-1.424,0.474-1.822
				c0.315-0.398,0.854-0.602,1.618-0.602c0.13,0,0.261,0.008,0.406,0.017c0.139,0.008,0.293,0.032,0.455,0.081l-0.131,1.033
				c-0.113-0.041-0.219-0.073-0.324-0.09s-0.212-0.024-0.334-0.024c-0.211,0-0.391,0.032-0.512,0.098
				c-0.131,0.065-0.229,0.155-0.302,0.276c-0.073,0.123-0.122,0.261-0.139,0.432c-0.024,0.17-0.032,0.357-0.032,0.577v1.407h1.383
				v1.009h-1.392v5.101h-1.172L146.568,128.563L146.568,128.563z"/>
			<path fill="#0A9EFC" d="M150.228,125.366c0-0.235,0.082-0.431,0.252-0.603c0.172-0.171,0.367-0.253,0.604-0.253
				c0.235,0,0.431,0.082,0.603,0.253c0.17,0.172,0.252,0.366,0.252,0.603s-0.082,0.431-0.252,0.602
				c-0.172,0.172-0.367,0.254-0.603,0.254c-0.236,0-0.432-0.082-0.604-0.254C150.318,125.797,150.228,125.602,150.228,125.366z
				 M150.505,127.563h1.162v6.106h-1.162V127.563z"/>
			<path fill="#0A9EFC" d="M153.531,128.303c0.325-0.302,0.707-0.529,1.132-0.677c0.431-0.146,0.86-0.228,1.284-0.228
				c0.447,0,0.829,0.058,1.154,0.171c0.326,0.113,0.586,0.26,0.789,0.447c0.203,0.187,0.358,0.405,0.455,0.649
				c0.098,0.244,0.146,0.505,0.146,0.767v3.114c0,0.211,0.009,0.414,0.018,0.595c0.008,0.178,0.023,0.35,0.04,0.512h-1.033
				c-0.023-0.309-0.04-0.618-0.04-0.928h-0.024c-0.261,0.397-0.562,0.676-0.91,0.838c-0.351,0.163-0.757,0.244-1.229,0.244
				c-0.285,0-0.553-0.041-0.813-0.113c-0.262-0.082-0.479-0.195-0.675-0.35c-0.196-0.155-0.351-0.343-0.455-0.578
				c-0.114-0.229-0.173-0.488-0.173-0.789c0-0.398,0.091-0.725,0.262-0.992c0.179-0.269,0.415-0.479,0.724-0.65
				c0.301-0.171,0.659-0.285,1.074-0.356c0.406-0.074,0.846-0.106,1.309-0.106h0.854v-0.261c0-0.154-0.032-0.31-0.089-0.463
				c-0.058-0.154-0.146-0.293-0.27-0.415s-0.269-0.22-0.448-0.293c-0.178-0.073-0.397-0.105-0.643-0.105
				c-0.219,0-0.414,0.024-0.585,0.065c-0.171,0.04-0.317,0.098-0.456,0.162c-0.138,0.064-0.26,0.139-0.373,0.229
				c-0.114,0.089-0.221,0.17-0.326,0.243L153.531,128.303z M156.8,130.727c-0.276,0-0.553,0.016-0.846,0.049
				c-0.285,0.032-0.554,0.089-0.789,0.17c-0.236,0.09-0.433,0.204-0.577,0.358c-0.146,0.153-0.229,0.35-0.229,0.594
				c0,0.35,0.121,0.603,0.357,0.757s0.553,0.235,0.96,0.235c0.317,0,0.585-0.058,0.813-0.163c0.219-0.105,0.405-0.244,0.545-0.414
				c0.139-0.171,0.235-0.366,0.293-0.578c0.057-0.211,0.089-0.414,0.089-0.626v-0.391H156.8V130.727z"/>
			<path fill="#0A9EFC" d="M160.193,127.563h1.162v0.942h0.025c0.146-0.325,0.397-0.594,0.756-0.789
				c0.357-0.202,0.781-0.301,1.252-0.301c0.293,0,0.578,0.049,0.847,0.14c0.27,0.089,0.504,0.227,0.708,0.413
				c0.203,0.188,0.365,0.433,0.479,0.732c0.122,0.293,0.179,0.643,0.179,1.049v3.93h-1.163v-3.611c0-0.284-0.04-0.528-0.113-0.731
				c-0.081-0.204-0.18-0.366-0.31-0.487c-0.131-0.122-0.276-0.212-0.447-0.27s-0.342-0.081-0.521-0.081
				c-0.244,0-0.464,0.04-0.667,0.113c-0.203,0.082-0.392,0.203-0.545,0.366c-0.154,0.171-0.277,0.382-0.357,0.634
				c-0.09,0.261-0.131,0.563-0.131,0.912v3.146h-1.163v-6.106H160.193z"/>
			<path fill="#0A9EFC" d="M166.935,132.621l3.465-4.059h-3.352v-1.008h4.768v1.031l-3.489,4.075h3.677v1.008h-5.067
				L166.935,132.621L166.935,132.621z"/>
			<path fill="#0A9EFC" d="M173.353,128.303c0.324-0.302,0.707-0.529,1.13-0.677c0.432-0.146,0.862-0.228,1.285-0.228
				c0.447,0,0.829,0.058,1.155,0.171c0.325,0.113,0.586,0.26,0.789,0.447c0.203,0.187,0.356,0.405,0.455,0.649
				c0.098,0.244,0.146,0.505,0.146,0.767v3.114c0,0.211,0.008,0.414,0.017,0.595c0.009,0.178,0.024,0.35,0.041,0.512h-1.033
				c-0.023-0.309-0.04-0.618-0.04-0.928h-0.024c-0.26,0.397-0.561,0.676-0.911,0.838c-0.35,0.163-0.757,0.244-1.228,0.244
				c-0.285,0-0.554-0.041-0.814-0.113c-0.26-0.082-0.479-0.195-0.674-0.35c-0.194-0.154-0.351-0.343-0.456-0.578
				c-0.113-0.229-0.171-0.488-0.171-0.789c0-0.398,0.09-0.725,0.26-0.992c0.181-0.269,0.416-0.479,0.726-0.65
				c0.301-0.171,0.658-0.285,1.073-0.356c0.406-0.074,0.847-0.106,1.31-0.106h0.854v-0.261c0-0.154-0.031-0.31-0.09-0.463
				c-0.058-0.154-0.146-0.293-0.269-0.415s-0.268-0.22-0.447-0.293c-0.179-0.073-0.397-0.105-0.643-0.105
				c-0.22,0-0.414,0.024-0.586,0.065c-0.17,0.04-0.316,0.098-0.455,0.162c-0.14,0.064-0.26,0.139-0.374,0.229
				c-0.114,0.089-0.22,0.17-0.325,0.243L173.353,128.303z M176.623,130.727c-0.277,0-0.554,0.016-0.847,0.049
				c-0.284,0.032-0.554,0.089-0.789,0.17c-0.235,0.09-0.432,0.204-0.577,0.358c-0.146,0.153-0.229,0.35-0.229,0.594
				c0,0.35,0.122,0.603,0.358,0.757c0.234,0.154,0.553,0.235,0.959,0.235c0.316,0,0.586-0.058,0.813-0.163
				c0.221-0.105,0.407-0.244,0.545-0.414c0.14-0.171,0.235-0.366,0.293-0.578c0.059-0.211,0.089-0.414,0.089-0.626v-0.391h-0.616
				L176.623,130.727L176.623,130.727z"/>
		</g>
		<g>
			<path fill="#0A9EFC" d="M69.811,103.234c1.757,0,3.253,0.513,4.475,1.537c1.228,1.024,1.902,2.326,2.032,3.912h-3.245
				c-0.202-0.861-0.594-1.513-1.171-1.943c-0.576-0.431-1.276-0.65-2.098-0.65c-1.326,0-2.359,0.479-3.091,1.439
				c-0.732,0.959-1.106,2.244-1.106,3.863c0,1.586,0.374,2.847,1.123,3.772c0.748,0.928,1.773,1.399,3.075,1.399
				c2.22,0,3.448-1.114,3.676-3.335h-3.416V110.7h6.49v8.346H74.39l-0.35-1.75c-1.082,1.416-2.497,2.123-4.237,2.123
				c-2.278,0-4.116-0.748-5.507-2.252c-1.392-1.497-2.09-3.425-2.09-5.774c0-2.393,0.69-4.353,2.073-5.873
				C65.679,103.999,67.518,103.234,69.811,103.234L69.811,103.234z M87.632,103.601c1.301,0,2.375,0.397,3.237,1.204
				c0.854,0.797,1.284,1.82,1.284,3.058c0,1.937-0.813,3.222-2.447,3.872v0.041c0.545,0.162,0.976,0.422,1.285,0.789
				c0.309,0.365,0.545,0.797,0.699,1.284c0.163,0.487,0.261,1.276,0.302,2.357c0.057,1.416,0.26,2.359,0.609,2.831h-3.399
				c-0.188-0.472-0.333-1.366-0.432-2.685c-0.113-1.383-0.366-2.285-0.756-2.718c-0.39-0.422-1.024-0.634-1.903-0.634h-3.416v6.035
				h-3.399v-15.446h8.337L87.632,103.601L87.632,103.601z M86.444,110.588c0.725,0,1.285-0.163,1.7-0.487
				c0.415-0.326,0.618-0.896,0.618-1.718c0-0.78-0.204-1.334-0.602-1.649c-0.407-0.326-0.984-0.488-1.732-0.488h-3.717v4.353h3.732
				V110.588z M102.622,103.601l5.774,15.445h-3.521l-1.171-3.44H97.93l-1.212,3.44h-3.44l5.864-15.445H102.622z M100.833,107.407
				l-2.009,5.669h4.002l-1.944-5.669H100.833z M113.115,103.601l6.442,10.361h0.041v-10.361h3.18v15.445h-3.392l-6.426-10.338
				h-0.041v10.338h-3.181v-15.445H113.115z M143.925,103.601v2.854h-4.629v12.592h-3.392v-12.592h-4.629v-2.854H143.925z
				 M149.089,103.601v15.445h-3.399v-15.445H149.089z M163.519,103.601v2.854h-4.628v12.592h-3.398v-12.592h-4.63v-2.854H163.519z
				 M172.995,103.601l5.773,15.445h-3.521l-1.172-3.44h-5.774l-1.212,3.44h-3.44l5.864-15.445H172.995z M171.197,107.407
				l-2.009,5.669h4.002l-1.943-5.669H171.197z M183.479,103.601l6.442,10.361h0.04v-10.361h3.181v15.445h-3.384l-6.426-10.338h-0.04
				v10.338h-3.182v-15.445H183.479z"/>
			<path fill="#0A9EFC" d="M172.303,98.199h4.53l-3.839,3.197h-2.93L172.303,98.199z"/>
		</g>
	</g>
</g>
</svg>
