<?xml version="1.0" encoding="utf-8"?>
<!-- Generator: Adobe Illustrator 16.0.0, SVG Export Plug-In . SVG Version: 6.00 Build 0)  -->
<!DOCTYPE svg PUBLIC "-//W3C//DTD SVG 1.1//EN" "http://www.w3.org/Graphics/SVG/1.1/DTD/svg11.dtd">
<svg version="1.1" id="Capa_1" xmlns="http://www.w3.org/2000/svg" xmlns:xlink="http://www.w3.org/1999/xlink" x="0px" y="0px"
	 width="73.785px" height="71.948px" viewBox="90.789 23.792 73.785 71.948" enable-background="new 90.789 23.792 73.785 71.948"
	 xml:space="preserve">
<g>
	<g>
		<path fill="#FFFFFF" d="M100.564,31.219c-4.758,5.328-5.409,12.875-2.05,18.78c0.082-1.725,0.326-3.439,0.984-5.165
			c3.034-8.36,12.379-12.632,20.749-9.599c3.772,1.392,6.645,4.019,8.531,7.215c0.162-4.597-1.644-9.184-5.326-12.461
			C116.799,24.004,106.551,24.574,100.564,31.219L100.564,31.219z"/>
		<path fill="#FFFFFF" d="M105.729,80.582c-7.052-5.49-8.359-15.665-2.872-22.717c2.457-3.196,5.824-5.165,9.429-5.905
			c-4.345-1.473-9.266-1.146-13.526,1.311c-7.71,4.506-10.249,14.43-5.742,22.141c3.611,6.148,10.663,9.021,17.3,7.63
			C108.682,82.551,107.128,81.729,105.729,80.582L105.729,80.582z"/>
		<path fill="#FFFFFF" d="M140.664,84.763c-7.377,5.084-17.463,3.277-22.547-4.019c-2.293-3.278-3.196-7.134-2.79-10.826
			c-2.708,3.692-3.855,8.442-2.79,13.282c2.05,8.694,10.745,14.104,19.431,12.136c6.971-1.645,11.811-7.459,12.461-14.187
			C143.373,82.469,142.144,83.697,140.664,84.763L140.664,84.763z"/>
		<path fill="#FFFFFF" d="M154.767,48.438c0.984,1.392,1.806,2.953,2.375,4.678c2.627,8.523-2.131,17.634-10.663,20.253
			c-3.854,1.146-7.711,0.902-11.149-0.578c2.709,3.692,6.889,6.229,11.811,6.646c8.938,0.739,16.73-5.985,17.381-14.845
			C165.097,57.458,160.998,51.065,154.767,48.438L154.767,48.438z"/>
		<path fill="#FFFFFF" d="M144.275,24.99c-6.646-2.708-13.939-0.659-18.364,4.506c1.643-0.577,3.357-0.821,5.165-0.821
			c8.938,0,16.151,7.297,16.151,16.235c0,4.018-1.472,7.629-3.937,10.491c4.344-1.472,8.036-4.677,9.923-9.264
			C156.573,37.783,152.554,28.348,144.275,24.99L144.275,24.99z"/>
		<path fill="#FFFFFF" d="M129.024,69.415L129.024,69.415h-0.577c-0.041,0.018-1.983,0.626-3.203,0.586
			c-1.214-0.041-1.896-0.415-1.896-0.415s-0.098,2.464,1.896,4.165c1.689,1.448,3.203,1.105,3.203,1.105v-0.008h0.596l0,0
			c0.171,0.031,1.602,0.252,3.188-1.105c1.993-1.708,1.896-4.173,1.896-4.173l0,0c-0.131,0.064-0.814,0.358-1.896,0.397
			C131.123,70.017,129.341,69.504,129.024,69.415z"/>
		<path fill="#FFFFFF" d="M141.534,53.286c0.31-0.984-0.032-2.416-0.415-3.375c-0.374-0.969-0.902-1.717-2.066-2.822
			c-0.691-0.658-2.725-1.757-4.44-2.236c-0.567-0.163-1.724,0.204-2.343,0.415c-0.617,0.203-2.513,1.032-2.513,1.032l-0.431,0.009
			l0,0l-0.871,0.008v-0.008h-0.726c0,0-1.895-0.83-2.513-1.033c-0.618-0.202-1.773-0.576-2.343-0.415
			c-1.726,0.479-3.758,1.586-4.441,2.237c-1.163,1.105-1.69,1.861-2.064,2.821c-0.384,0.969-0.726,2.392-0.415,3.375
			c0.657,2.065,4.132,6.751,4.407,7.441c0.277,0.69-0.161,1.993-0.063,2.651c0.203,1.357,2.479,4.888,2.479,4.888l0.018,0.033
			c0.122,0.202,0.553,0.854,1.164,0.968c0.724,0.139,2.153,0.171,2.813,0.023c0.496-0.104,1.465-0.675,1.668-0.797l0.008-2.586
			l-0.895-0.008l-2.066-2.749c0,0,1.147-2.384,1.285-3.896c0.14-1.514-0.87-3.864-0.87-3.864s-2.131-0.382-3.473-1.351
			c-1.342-0.968-1.968-2.684-1.936-3.091c0.031-0.415,2.676-0.049,3.951,1c1.204,1,2.182,2.578,2.182,2.578s0.513,2.033,0.659,3.822
			c0.138,1.789-0.952,4.263-0.952,4.263l0.927,0.041h1.391l2.546-0.041c0,0-1.104-2.474-0.968-4.271
			c0.141-1.79,0.65-3.823,0.65-3.823s0.854-1.536,2.064-2.529c1.271-1.058,4.034-1.464,4.066-1.049
			c0.033,0.414-0.789,2.261-2.131,3.221c-1.342,0.969-3.271,1.221-3.271,1.221s-1,1.902-0.871,3.416
			c0.141,1.513,1.304,4.399,1.304,4.399l-2.093,2.691h-0.908v2.546c0.211,0.131,1.193,0.717,1.689,0.822
			c0.659,0.146,2.091,0.113,2.814-0.023c0.553-0.105,0.992-0.691,1.172-0.952l0.016-0.033c0,0,2.277-3.537,2.48-4.888
			c0.098-0.659-0.342-1.969-0.064-2.652C137.402,60.037,140.882,55.352,141.534,53.286z"/>
		<path fill="#FFFFFF" d="M135.166,52.302c0.146,0.391-0.61,1.554-0.798,1.667c-0.951,0.595-1.789,0.554-1.789,0.554l-0.466-0.65
			c0,0,0.938-1.236,1.407-1.448C133.986,52.212,135.068,52.033,135.166,52.302z"/>
		<path fill="#FFFFFF" d="M122.46,52.302c-0.146,0.391,0.608,1.554,0.797,1.667c0.952,0.595,1.79,0.554,1.79,0.554l0.463-0.65
			c0,0-0.935-1.236-1.407-1.448C123.64,52.212,122.558,52.033,122.46,52.302z"/>
	</g>
</g>
</svg>
